P3
13 16
255
255 255 255
255 255 255
255 255 255
247 7 8
247 7 8
247 7 8
247 7 8
247 7 8
247 7 8
255 255 255
255 255 255
255 255 255
255 255 255
255 255 255
255 255 255
247 7 8
247 7 8
247 7 8
247 7 8
247 7 8
247 7 8
247 7 8
247 7 8
247 7 8
247 7 8
255 255 255
255 255 255
255 255 255
152 71 5
152 71 5
152 71 5
254 190 144
254 190 144
254 190 144
0 0 0
254 190 144
255 255 255
255 255 255
255 255 255
255 255 255
152 71 5
254 190 144
152 71 5
254 190 144
254 190 144
254 190 144
254 190 144
0 0 0
254 190 144
254 190 144
254 190 144
255 255 255
255 255 255
152 71 5
254 190 144
152 71 5
152 71 5
254 190 144
254 190 144
254 190 144
254 190 144
0 0 0
254 190 144
254 190 144
254 190 144
255 255 255
152 71 5
152 71 5
254 190 144
254 190 144
254 190 144
254 190 144
254 190 144
0 0 0
0 0 0
0 0 0
0 0 0
255 255 255
255 255 255
255 255 255
255 255 255
254 190 144
254 190 144
254 190 144
254 190 144
254 190 144
254 190 144
254 190 144
254 190 144
255 255 255
255 255 255
255 255 255
255 255 255
247 7 8
247 7 8
0 118 168
247 7 8
247 7 8
247 7 8
247 7 8
255 255 255
255 255 255
255 255 255
255 255 255
255 255 255
247 7 8
247 7 8
247 7 8
0 118 168
247 7 8
247 7 8
0 118 168
247 7 8
247 7 8
247 7 8
255 255 255
255 255 255
247 7 8
247 7 8
247 7 8
247 7 8
0 118 168
0 118 168
0 118 168
0 118 168
247 7 8
247 7 8
247 7 8
247 7 8
255 255 255
244 196 148
244 196 148
247 7 8
0 118 168
255 251 0
0 118 168
0 118 168
255 251 0
0 118 168
247 7 8
244 196 148
244 196 148
255 255 255
244 196 148
244 196 148
244 196 148
0 118 168
0 118 168
0 118 168
0 118 168
0 118 168
0 118 168
244 196 148
244 196 148
244 196 148
255 255 255
244 196 148
244 196 148
0 118 168
0 118 168
0 118 168
0 118 168
0 118 168
0 118 168
0 118 168
0 118 168
244 196 148
244 196 148
255 255 255
255 255 255
255 255 255
0 118 168
0 118 168
0 118 168
255 255 255
255 255 255
0 118 168
0 118 168
0 118 168
255 255 255
255 255 255
255 255 255
255 255 255
152 71 5
152 71 5
152 71 5
255 255 255
255 255 255
255 255 255
255 255 255
152 71 5
152 71 5
152 71 5
255 255 255
255 255 255
152 71 5
152 71 5
152 71 5
152 71 5
255 255 255
255 255 255
255 255 255
255 255 255
152 71 5
152 71 5
152 71 5
152 71 5
255 255 255
